<svg width="47" height="32" viewBox="0 0 47 32" fill="none" xmlns="http://www.w3.org/2000/svg">
<path d="M36.3182 12.8309C36.2997 12.8309 36.2819 12.8331 36.2648 12.8373C36.005 9.25849 34.3609 5.92024 31.6793 3.52702C28.9977 1.1338 25.4884 -0.127193 21.892 0.0101489C18.2955 0.147491 14.8933 1.67242 12.4031 4.26314C9.91303 6.85386 8.52984 10.3077 8.54545 13.8959C8.54967 14.9861 8.68304 16.0721 8.94282 17.1312C8.80823 17.1248 8.68218 17.0907 8.54545 17.0907C6.27906 17.0907 4.10549 17.9883 2.50291 19.586C0.900322 21.1838 0 23.3508 0 25.6103C0 28.1704 1.15577 30.4388 2.94818 32H42.6696C45.2824 30.0597 47 26.9798 47 23.4804C47 22.0819 46.7237 20.6971 46.1869 19.405C45.6501 18.113 44.8633 16.939 43.8714 15.9501C42.8795 14.9612 41.7019 14.1768 40.4059 13.6416C39.11 13.1064 37.7209 12.8309 36.3182 12.8309Z" fill="#63AB57"/>
<path d="M17.7099 24.132C16.7739 24.132 15.9699 23.952 15.2979 23.592C14.6259 23.232 14.1099 22.724 13.7499 22.068C13.3979 21.412 13.2219 20.644 13.2219 19.764C13.2219 19.108 13.3219 18.512 13.5219 17.976C13.7299 17.44 14.0259 16.98 14.4099 16.596C14.8019 16.212 15.2739 15.92 15.8259 15.72C16.3859 15.512 17.0139 15.408 17.7099 15.408C18.0779 15.408 18.4579 15.452 18.8499 15.54C19.2499 15.62 19.6019 15.744 19.9059 15.912C20.1299 16.032 20.2859 16.184 20.3739 16.368C20.4619 16.552 20.4899 16.74 20.4579 16.932C20.4339 17.124 20.3659 17.296 20.2539 17.448C20.1419 17.6 19.9979 17.704 19.8219 17.76C19.6459 17.808 19.4539 17.78 19.2459 17.676C19.0059 17.564 18.7659 17.48 18.5259 17.424C18.2939 17.36 18.0499 17.328 17.7939 17.328C17.2979 17.328 16.8819 17.424 16.5459 17.616C16.2179 17.8 15.9699 18.072 15.8019 18.432C15.6339 18.792 15.5499 19.236 15.5499 19.764C15.5499 20.292 15.6339 20.74 15.8019 21.108C15.9699 21.468 16.2179 21.744 16.5459 21.936C16.8819 22.12 17.2979 22.212 17.7939 22.212C18.0019 22.212 18.2259 22.188 18.4659 22.14C18.7059 22.084 18.9419 22 19.1739 21.888C19.4139 21.784 19.6259 21.756 19.8099 21.804C20.0019 21.852 20.1539 21.948 20.2659 22.092C20.3859 22.236 20.4619 22.404 20.4939 22.596C20.5259 22.78 20.4979 22.964 20.4099 23.148C20.3299 23.332 20.1859 23.48 19.9779 23.592C19.6979 23.76 19.3499 23.892 18.9339 23.988C18.5259 24.084 18.1179 24.132 17.7099 24.132ZM25.4984 24.132C24.6424 24.132 23.8904 23.952 23.2424 23.592C22.5944 23.224 22.0904 22.712 21.7304 22.056C21.3784 21.4 21.2024 20.636 21.2024 19.764C21.2024 19.108 21.3024 18.512 21.5024 17.976C21.7104 17.44 22.0024 16.98 22.3784 16.596C22.7624 16.212 23.2184 15.92 23.7464 15.72C24.2744 15.512 24.8584 15.408 25.4984 15.408C26.3544 15.408 27.1024 15.588 27.7424 15.948C28.3904 16.308 28.8944 16.816 29.2544 17.472C29.6144 18.12 29.7944 18.884 29.7944 19.764C29.7944 20.42 29.6904 21.016 29.4824 21.552C29.2824 22.088 28.9904 22.552 28.6064 22.944C28.2304 23.328 27.7784 23.624 27.2504 23.832C26.7224 24.032 26.1384 24.132 25.4984 24.132ZM25.4984 22.284C25.9224 22.284 26.2824 22.184 26.5784 21.984C26.8744 21.784 27.1024 21.496 27.2624 21.12C27.4224 20.744 27.5024 20.292 27.5024 19.764C27.5024 18.972 27.3264 18.356 26.9744 17.916C26.6224 17.476 26.1304 17.256 25.4984 17.256C25.0824 17.256 24.7224 17.356 24.4184 17.556C24.1224 17.748 23.8944 18.032 23.7344 18.408C23.5744 18.776 23.4944 19.228 23.4944 19.764C23.4944 20.556 23.6704 21.176 24.0224 21.624C24.3744 22.064 24.8664 22.284 25.4984 22.284Z" fill="white"/>
<path d="M31.942 26C31.6486 26 31.4353 25.9333 31.302 25.8C31.1753 25.66 31.112 25.4567 31.112 25.19C31.112 25.0033 31.152 24.8367 31.232 24.69C31.3186 24.5433 31.4286 24.4 31.562 24.26L33.312 22.43C33.572 22.15 33.7553 21.91 33.862 21.71C33.9753 21.51 34.032 21.31 34.032 21.11C34.032 20.8567 33.9486 20.6667 33.782 20.54C33.6153 20.4133 33.3753 20.35 33.062 20.35C32.902 20.35 32.732 20.3733 32.552 20.42C32.372 20.46 32.1786 20.5333 31.972 20.64C31.792 20.72 31.6286 20.7433 31.482 20.71C31.342 20.6767 31.222 20.6033 31.122 20.49C31.0286 20.3767 30.9686 20.2467 30.942 20.1C30.922 19.9533 30.9453 19.81 31.012 19.67C31.0786 19.5233 31.1986 19.4033 31.372 19.31C31.6786 19.1433 31.9953 19.0233 32.322 18.95C32.6553 18.8767 32.9886 18.84 33.322 18.84C33.8686 18.84 34.3253 18.92 34.692 19.08C35.0653 19.24 35.3486 19.4733 35.542 19.78C35.7353 20.08 35.832 20.4533 35.832 20.9C35.832 21.18 35.7886 21.4533 35.702 21.72C35.622 21.9867 35.4886 22.2533 35.302 22.52C35.122 22.7867 34.8786 23.07 34.572 23.37L32.952 24.97V24.51H35.422C35.6686 24.51 35.8553 24.5733 35.982 24.7C36.1153 24.8267 36.182 25.01 36.182 25.25C36.182 25.49 36.1153 25.6767 35.982 25.81C35.8553 25.9367 35.6686 26 35.422 26H31.942Z" fill="white"/>
</svg>
