<svg width="33" height="37" viewBox="0 0 33 37" fill="none" xmlns="http://www.w3.org/2000/svg">
<path d="M1.31 35.07C1.16333 35.07 1.05 35.03 0.97 34.95C0.89 34.8633 0.85 34.7433 0.85 34.59V28.36C0.85 28.2 0.89 28.08 0.97 28C1.05 27.92 1.16333 27.88 1.31 27.88C1.46333 27.88 1.58 27.92 1.66 28C1.74 28.08 1.78 28.2 1.78 28.36V31.03H5.86V28.36C5.86 28.2 5.9 28.08 5.98 28C6.06 27.92 6.17667 27.88 6.33 27.88C6.47667 27.88 6.59 27.92 6.67 28C6.75 28.08 6.79 28.2 6.79 28.36V34.59C6.79 34.7433 6.75 34.8633 6.67 34.95C6.59 35.03 6.47667 35.07 6.33 35.07C6.17667 35.07 6.06 35.03 5.98 34.95C5.9 34.8633 5.86 34.7433 5.86 34.59V31.82H1.78V34.59C1.78 34.7433 1.74 34.8633 1.66 34.95C1.58667 35.03 1.47 35.07 1.31 35.07ZM8.81672 35.05C8.67672 35.05 8.56672 35.0067 8.48672 34.92C8.40672 34.8333 8.36672 34.7133 8.36672 34.56V30.57C8.36672 30.41 8.40672 30.29 8.48672 30.21C8.56672 30.1233 8.67672 30.08 8.81672 30.08C8.96339 30.08 9.07672 30.1233 9.15672 30.21C9.23672 30.29 9.27672 30.41 9.27672 30.57V34.56C9.27672 34.7133 9.23672 34.8333 9.15672 34.92C9.08339 35.0067 8.97005 35.05 8.81672 35.05ZM8.81672 29C8.63672 29 8.49339 28.9533 8.38672 28.86C8.28672 28.76 8.23672 28.63 8.23672 28.47C8.23672 28.2967 8.28672 28.1667 8.38672 28.08C8.49339 27.9867 8.63672 27.94 8.81672 27.94C9.01005 27.94 9.15339 27.9867 9.24672 28.08C9.34672 28.1667 9.39672 28.2967 9.39672 28.47C9.39672 28.63 9.34672 28.76 9.24672 28.86C9.15339 28.9533 9.01005 29 8.81672 29ZM12.4198 35.09C12.1198 35.09 11.8164 35.0567 11.5098 34.99C11.2098 34.9167 10.9264 34.7933 10.6598 34.62C10.5864 34.5733 10.5331 34.5167 10.4998 34.45C10.4731 34.3767 10.4631 34.3067 10.4698 34.24C10.4831 34.1667 10.5131 34.1033 10.5598 34.05C10.6064 33.9967 10.6631 33.9667 10.7298 33.96C10.8031 33.9467 10.8798 33.9633 10.9598 34.01C11.2198 34.1567 11.4698 34.26 11.7098 34.32C11.9564 34.38 12.1998 34.41 12.4398 34.41C12.8064 34.41 13.0831 34.3433 13.2698 34.21C13.4564 34.0767 13.5498 33.9 13.5498 33.68C13.5498 33.4933 13.4864 33.35 13.3598 33.25C13.2398 33.1433 13.0498 33.0633 12.7898 33.01L11.8598 32.82C11.4464 32.7267 11.1331 32.5733 10.9198 32.36C10.7131 32.14 10.6098 31.86 10.6098 31.52C10.6098 31.22 10.6898 30.96 10.8498 30.74C11.0164 30.5133 11.2464 30.34 11.5398 30.22C11.8331 30.1 12.1698 30.04 12.5498 30.04C12.8431 30.04 13.1198 30.08 13.3798 30.16C13.6464 30.2333 13.8864 30.3467 14.0998 30.5C14.1798 30.5467 14.2298 30.6067 14.2498 30.68C14.2764 30.7467 14.2798 30.8167 14.2598 30.89C14.2464 30.9567 14.2164 31.0133 14.1698 31.06C14.1231 31.1067 14.0631 31.1367 13.9898 31.15C13.9164 31.1567 13.8364 31.1367 13.7498 31.09C13.5564 30.9567 13.3564 30.8633 13.1498 30.81C12.9498 30.75 12.7498 30.72 12.5498 30.72C12.1898 30.72 11.9164 30.79 11.7298 30.93C11.5498 31.07 11.4598 31.2533 11.4598 31.48C11.4598 31.6533 11.5131 31.7967 11.6198 31.91C11.7331 32.0233 11.9098 32.1067 12.1498 32.16L13.0798 32.35C13.5131 32.4433 13.8398 32.5933 14.0598 32.8C14.2798 33 14.3898 33.2733 14.3898 33.62C14.3898 34.0733 14.2098 34.4333 13.8498 34.7C13.4964 34.96 13.0198 35.09 12.4198 35.09ZM17.5449 35.09C17.1516 35.09 16.8216 35.02 16.5549 34.88C16.2949 34.74 16.0983 34.5367 15.9649 34.27C15.8383 34.0033 15.7749 33.6767 15.7749 33.29V30.83H15.1349C15.0149 30.83 14.9216 30.8 14.8549 30.74C14.7883 30.6733 14.7549 30.5867 14.7549 30.48C14.7549 30.3667 14.7883 30.28 14.8549 30.22C14.9216 30.16 15.0149 30.13 15.1349 30.13H15.7749V29.04C15.7749 28.8867 15.8149 28.7733 15.8949 28.7C15.9749 28.62 16.0883 28.58 16.2349 28.58C16.3816 28.58 16.4916 28.62 16.5649 28.7C16.6449 28.7733 16.6849 28.8867 16.6849 29.04V30.13H17.8949C18.0216 30.13 18.1183 30.16 18.1849 30.22C18.2516 30.28 18.2849 30.3667 18.2849 30.48C18.2849 30.5867 18.2516 30.6733 18.1849 30.74C18.1183 30.8 18.0216 30.83 17.8949 30.83H16.6849V33.21C16.6849 33.5767 16.7616 33.8533 16.9149 34.04C17.0683 34.2267 17.3216 34.32 17.6749 34.32C17.8016 34.32 17.9083 34.31 17.9949 34.29C18.0816 34.2633 18.1583 34.25 18.2249 34.25C18.2849 34.2433 18.3349 34.2633 18.3749 34.31C18.4216 34.3567 18.4449 34.4433 18.4449 34.57C18.4449 34.6633 18.4283 34.75 18.3949 34.83C18.3683 34.9033 18.3116 34.9533 18.2249 34.98C18.1449 35.0067 18.0383 35.03 17.9049 35.05C17.7716 35.0767 17.6516 35.09 17.5449 35.09ZM21.1301 35.09C20.6501 35.09 20.2334 34.9867 19.8801 34.78C19.5267 34.5733 19.2534 34.28 19.0601 33.9C18.8667 33.52 18.7701 33.0733 18.7701 32.56C18.7701 32.1733 18.8234 31.8267 18.9301 31.52C19.0434 31.2067 19.2034 30.94 19.4101 30.72C19.6167 30.5 19.8634 30.3333 20.1501 30.22C20.4434 30.1 20.7701 30.04 21.1301 30.04C21.6101 30.04 22.0267 30.1433 22.3801 30.35C22.7334 30.5567 23.0067 30.85 23.2001 31.23C23.3934 31.6033 23.4901 32.0467 23.4901 32.56C23.4901 32.9467 23.4334 33.2967 23.3201 33.61C23.2134 33.9233 23.0567 34.19 22.8501 34.41C22.6434 34.63 22.3934 34.8 22.1001 34.92C21.8134 35.0333 21.4901 35.09 21.1301 35.09ZM21.1301 34.37C21.4234 34.37 21.6767 34.3 21.8901 34.16C22.1101 34.02 22.2767 33.8167 22.3901 33.55C22.5101 33.2833 22.5701 32.9533 22.5701 32.56C22.5701 31.9733 22.4401 31.5267 22.1801 31.22C21.9201 30.9133 21.5701 30.76 21.1301 30.76C20.8434 30.76 20.5901 30.83 20.3701 30.97C20.1567 31.1033 19.9901 31.3033 19.8701 31.57C19.7501 31.8367 19.6901 32.1667 19.6901 32.56C19.6901 33.1467 19.8201 33.5967 20.0801 33.91C20.3467 34.2167 20.6967 34.37 21.1301 34.37ZM25.1258 35.07C24.9724 35.07 24.8558 35.03 24.7758 34.95C24.6958 34.87 24.6558 34.7533 24.6558 34.6V30.52C24.6558 30.3667 24.6958 30.2533 24.7758 30.18C24.8558 30.1 24.9658 30.06 25.1058 30.06C25.2458 30.06 25.3524 30.1 25.4258 30.18C25.5058 30.2533 25.5458 30.3667 25.5458 30.52V31.29H25.4458C25.5524 30.89 25.7524 30.5867 26.0458 30.38C26.3391 30.1733 26.7091 30.0567 27.1558 30.03C27.2624 30.0233 27.3491 30.05 27.4158 30.11C27.4824 30.1633 27.5191 30.2567 27.5258 30.39C27.5324 30.5167 27.5024 30.62 27.4358 30.7C27.3691 30.7733 27.2658 30.8167 27.1258 30.83L26.9458 30.84C26.5058 30.8867 26.1658 31.03 25.9258 31.27C25.6924 31.51 25.5758 31.84 25.5758 32.26V34.6C25.5758 34.7533 25.5358 34.87 25.4558 34.95C25.3824 35.03 25.2724 35.07 25.1258 35.07ZM29.7309 36.87C29.6242 36.87 29.5342 36.84 29.4609 36.78C29.3942 36.7267 29.3542 36.65 29.3409 36.55C29.3342 36.4567 29.3542 36.3567 29.4009 36.25L30.0809 34.71V35.09L28.1909 30.69C28.1442 30.5767 28.1275 30.4733 28.1409 30.38C28.1542 30.2867 28.1975 30.21 28.2709 30.15C28.3509 30.09 28.4575 30.06 28.5909 30.06C28.7042 30.06 28.7942 30.0867 28.8609 30.14C28.9275 30.1933 28.9909 30.2867 29.0509 30.42L30.6209 34.29H30.3409L31.9409 30.42C31.9942 30.2867 32.0575 30.1933 32.1309 30.14C32.2042 30.0867 32.3042 30.06 32.4309 30.06C32.5442 30.06 32.6309 30.09 32.6909 30.15C32.7575 30.21 32.7975 30.2867 32.8109 30.38C32.8242 30.4733 32.8042 30.5733 32.7509 30.68L30.2309 36.51C30.1642 36.65 30.0942 36.7433 30.0209 36.79C29.9542 36.8433 29.8575 36.87 29.7309 36.87Z" fill="white"/>
<path d="M8.16461 7.32003C8.422 6.65824 8.74659 6.02602 9.13303 5.4338C10.3503 3.57216 12.1426 2.18341 14.2223 1.49033C16.302 0.797245 18.5486 0.84 20.6017 1.61173C22.6549 2.38347 24.3956 3.83945 25.5445 5.74613C26.6935 7.6528 27.1842 9.89966 26.9379 12.1263C26.6916 14.3529 25.7226 16.4302 24.1863 18.025C22.6499 19.6198 20.6354 20.6396 18.4657 20.9209C16.2961 21.2022 14.0971 20.7286 12.2216 19.5761C10.3461 18.4237 8.90262 16.6591 8.12286 14.5655" stroke="white" stroke-width="2" stroke-linecap="round" stroke-linejoin="round"/>
<path d="M7 3.79143V7.62804H10.978" stroke="white" stroke-width="2" stroke-linecap="round" stroke-linejoin="round"/>
<path d="M19.8648 13.7829L17.0514 11.4732V5.91718" stroke="white" stroke-width="2" stroke-linecap="round" stroke-linejoin="round"/>
</svg>
