<svg width="22" height="37" viewBox="0 0 22 37" fill="none" xmlns="http://www.w3.org/2000/svg">
<path d="M4.31 35.07C4.16333 35.07 4.05 35.03 3.97 34.95C3.89 34.8633 3.85 34.7433 3.85 34.59V28.42C3.85 28.2667 3.89 28.15 3.97 28.07C4.05667 27.99 4.17333 27.95 4.32 27.95H6.7C7.46 27.95 8.04333 28.1367 8.45 28.51C8.86333 28.8833 9.07 29.4067 9.07 30.08C9.07 30.76 8.86333 31.2867 8.45 31.66C8.04333 32.0333 7.46 32.22 6.7 32.22H4.78V34.59C4.78 34.7433 4.74 34.8633 4.66 34.95C4.58667 35.03 4.47 35.07 4.31 35.07ZM4.78 31.47H6.58C7.1 31.47 7.49 31.3533 7.75 31.12C8.01667 30.88 8.15 30.5333 8.15 30.08C8.15 29.6267 8.01667 29.2867 7.75 29.06C7.49 28.8267 7.1 28.71 6.58 28.71H4.78V31.47ZM11.403 35.09C11.0697 35.09 10.7664 35.0233 10.493 34.89C10.2264 34.7567 10.0164 34.5767 9.86305 34.35C9.71638 34.1233 9.64305 33.87 9.64305 33.59C9.64305 33.23 9.73305 32.9467 9.91305 32.74C10.093 32.5333 10.3964 32.3867 10.823 32.3C11.2497 32.2067 11.823 32.16 12.543 32.16H13.013V32.74H12.563C12.0497 32.74 11.643 32.7633 11.343 32.81C11.0497 32.8567 10.843 32.94 10.723 33.06C10.603 33.1733 10.543 33.3333 10.543 33.54C10.543 33.8 10.633 34.0133 10.813 34.18C10.9997 34.3467 11.253 34.43 11.573 34.43C11.8264 34.43 12.0497 34.37 12.243 34.25C12.4364 34.1233 12.5897 33.9567 12.703 33.75C12.8164 33.5367 12.873 33.2933 12.873 33.02V31.87C12.873 31.4767 12.793 31.1933 12.633 31.02C12.473 30.84 12.203 30.75 11.823 30.75C11.603 30.75 11.3764 30.78 11.143 30.84C10.9097 30.9 10.6664 30.9933 10.413 31.12C10.313 31.1667 10.2264 31.1833 10.153 31.17C10.0797 31.15 10.0197 31.11 9.97305 31.05C9.93305 30.9833 9.90971 30.9133 9.90305 30.84C9.90305 30.76 9.91971 30.6833 9.95305 30.61C9.99305 30.5367 10.0597 30.4833 10.153 30.45C10.4464 30.3033 10.7364 30.2 11.023 30.14C11.3164 30.0733 11.5897 30.04 11.843 30.04C12.2764 30.04 12.633 30.11 12.913 30.25C13.193 30.3833 13.403 30.5933 13.543 30.88C13.683 31.16 13.753 31.52 13.753 31.96V34.6C13.753 34.7533 13.7164 34.87 13.643 34.95C13.5697 35.03 13.463 35.07 13.323 35.07C13.1897 35.07 13.083 35.03 13.003 34.95C12.9297 34.87 12.893 34.7533 12.893 34.6V33.89H12.983C12.9297 34.1367 12.8297 34.35 12.683 34.53C12.5364 34.71 12.353 34.85 12.133 34.95C11.9197 35.0433 11.6764 35.09 11.403 35.09ZM16.2563 36.87C16.1496 36.87 16.0596 36.84 15.9863 36.78C15.9196 36.7267 15.8796 36.65 15.8663 36.55C15.8596 36.4567 15.8796 36.3567 15.9263 36.25L16.6063 34.71V35.09L14.7163 30.69C14.6696 30.5767 14.6529 30.4733 14.6663 30.38C14.6796 30.2867 14.7229 30.21 14.7963 30.15C14.8763 30.09 14.9829 30.06 15.1163 30.06C15.2296 30.06 15.3196 30.0867 15.3863 30.14C15.4529 30.1933 15.5163 30.2867 15.5763 30.42L17.1463 34.29H16.8663L18.4663 30.42C18.5196 30.2867 18.5829 30.1933 18.6563 30.14C18.7296 30.0867 18.8296 30.06 18.9563 30.06C19.0696 30.06 19.1563 30.09 19.2163 30.15C19.2829 30.21 19.3229 30.2867 19.3363 30.38C19.3496 30.4733 19.3296 30.5733 19.2763 30.68L16.7563 36.51C16.6896 36.65 16.6196 36.7433 16.5463 36.79C16.4796 36.8433 16.3829 36.87 16.2563 36.87Z" fill="white"/>
<path d="M4.05009 18.7449C2.52154 17.2197 1.50362 15.2314 1.14407 13.0686C0.784523 10.9057 1.10206 8.68083 2.05059 6.71689C2.99912 4.75296 4.52929 3.15217 6.41898 2.14687C8.30868 1.14157 10.4596 0.784084 12.5594 1.1263C14.6593 1.46851 16.5989 2.49262 18.0966 4.04997C19.5944 5.60732 20.5724 7.61687 20.8887 9.78693C21.205 11.957 20.8431 14.1746 19.8555 16.118C18.868 18.0613 17.3062 19.6292 15.3968 20.5941C14.8352 20.8926 14.2066 21.0307 13.576 20.9943C12.9453 20.9578 12.3356 20.748 11.8098 20.3866C11.6007 20.267 11.4227 20.097 11.2909 19.8911C11.1591 19.6851 11.0775 19.4494 11.0531 19.2039C11.0531 17.8446 11.0531 9.36224 11.0531 9.36224" stroke="white" stroke-width="2" stroke-linecap="round" stroke-linejoin="round"/>
<path d="M7.52167 12.0675L11.0488 8.89436L14.2938 12.2043" stroke="white" stroke-width="2" stroke-linecap="round" stroke-linejoin="round"/>
</svg>
