<svg width="32" height="32" viewBox="0 0 32 32" fill="none" xmlns="http://www.w3.org/2000/svg">
<path d="M31.463 19.8355L27.5123 26.7844C26.738 28.1645 25.2999 28.8867 23.8461 28.7904H20.6856V32L16.7349 24.7783L20.6856 17.5567V20.7663H25.1419L21.6337 14.5878L28.4763 10.5757L31.3207 15.5827C32.1425 16.8185 32.2531 18.4714 31.463 19.8355ZM11.5359 0H19.4372C20.9858 0 22.3291 0.914744 22.977 2.23069L24.5572 5.02307L27.2911 3.41825L23.1192 10.4955L14.9809 10.6399L17.7147 9.0351L15.4865 5.10331L11.9942 11.2818L5.13584 7.26981L7.98031 2.26279C8.62821 0.930792 9.97143 0 11.5359 0ZM4.96201 26.8004L1.01137 19.8516C0.237039 18.4875 0.347657 16.8505 1.15359 15.6148L2.73385 12.8385L0 11.2337L8.12253 11.3621L12.3102 18.4554L9.57637 16.8506L7.3482 20.7663H14.3646V28.7904H8.67562C7.93528 28.8448 7.19476 28.6871 6.53826 28.3353C5.88177 27.9836 5.33565 27.4518 4.96201 26.8004Z" fill="#63AB57"/>
</svg>
