<svg width="34" height="37" viewBox="0 0 34 37" fill="none" xmlns="http://www.w3.org/2000/svg">
<path d="M4.04 35.07C3.88667 35.07 3.77 35.03 3.69 34.95C3.61 34.8633 3.57 34.7433 3.57 34.59V28.74H1.38C1.25333 28.74 1.15333 28.7067 1.08 28.64C1.00667 28.5667 0.97 28.4667 0.97 28.34C0.97 28.2133 1.00667 28.1167 1.08 28.05C1.15333 27.9833 1.25333 27.95 1.38 27.95H6.69C6.82333 27.95 6.92333 27.9833 6.99 28.05C7.06333 28.1167 7.1 28.2133 7.1 28.34C7.1 28.4667 7.06333 28.5667 6.99 28.64C6.92333 28.7067 6.82333 28.74 6.69 28.74H4.5V34.59C4.5 34.7433 4.46 34.8633 4.38 34.95C4.30667 35.03 4.19333 35.07 4.04 35.07ZM9.10273 35.09C8.62273 35.09 8.20607 34.9867 7.85273 34.78C7.4994 34.5733 7.22607 34.28 7.03273 33.9C6.8394 33.52 6.74273 33.0733 6.74273 32.56C6.74273 32.1733 6.79607 31.8267 6.90273 31.52C7.01607 31.2067 7.17607 30.94 7.38273 30.72C7.5894 30.5 7.83607 30.3333 8.12273 30.22C8.41607 30.1 8.74273 30.04 9.10273 30.04C9.58273 30.04 9.9994 30.1433 10.3527 30.35C10.7061 30.5567 10.9794 30.85 11.1727 31.23C11.3661 31.6033 11.4627 32.0467 11.4627 32.56C11.4627 32.9467 11.4061 33.2967 11.2927 33.61C11.1861 33.9233 11.0294 34.19 10.8227 34.41C10.6161 34.63 10.3661 34.8 10.0727 34.92C9.78607 35.0333 9.46273 35.09 9.10273 35.09ZM9.10273 34.37C9.39607 34.37 9.6494 34.3 9.86273 34.16C10.0827 34.02 10.2494 33.8167 10.3627 33.55C10.4827 33.2833 10.5427 32.9533 10.5427 32.56C10.5427 31.9733 10.4127 31.5267 10.1527 31.22C9.89273 30.9133 9.54273 30.76 9.10273 30.76C8.81607 30.76 8.56273 30.83 8.34273 30.97C8.1294 31.1033 7.96273 31.3033 7.84273 31.57C7.72273 31.8367 7.66273 32.1667 7.66273 32.56C7.66273 33.1467 7.79273 33.5967 8.05273 33.91C8.3194 34.2167 8.6694 34.37 9.10273 34.37ZM13.0784 36.87C12.9384 36.87 12.8284 36.83 12.7484 36.75C12.6684 36.67 12.6284 36.5567 12.6284 36.41V30.52C12.6284 30.3667 12.6684 30.2533 12.7484 30.18C12.8284 30.1 12.9384 30.06 13.0784 30.06C13.2251 30.06 13.3351 30.1 13.4084 30.18C13.4884 30.2533 13.5284 30.3667 13.5284 30.52V31.43L13.4184 31.25C13.5251 30.8833 13.7351 30.59 14.0484 30.37C14.3618 30.15 14.7384 30.04 15.1784 30.04C15.6118 30.04 15.9884 30.1433 16.3084 30.35C16.6284 30.55 16.8784 30.84 17.0584 31.22C17.2384 31.5933 17.3284 32.04 17.3284 32.56C17.3284 33.0733 17.2384 33.5233 17.0584 33.91C16.8851 34.29 16.6351 34.5833 16.3084 34.79C15.9884 34.99 15.6118 35.09 15.1784 35.09C14.7451 35.09 14.3718 34.98 14.0584 34.76C13.7451 34.54 13.5351 34.25 13.4284 33.89H13.5384V36.41C13.5384 36.5567 13.4984 36.67 13.4184 36.75C13.3384 36.83 13.2251 36.87 13.0784 36.87ZM14.9684 34.37C15.2551 34.37 15.5051 34.3 15.7184 34.16C15.9384 34.02 16.1084 33.8167 16.2284 33.55C16.3484 33.2833 16.4084 32.9533 16.4084 32.56C16.4084 31.9733 16.2784 31.5267 16.0184 31.22C15.7584 30.9133 15.4084 30.76 14.9684 30.76C14.6751 30.76 14.4184 30.83 14.1984 30.97C13.9851 31.1033 13.8184 31.3033 13.6984 31.57C13.5851 31.8367 13.5284 32.1667 13.5284 32.56C13.5284 33.1467 13.6584 33.5967 13.9184 33.91C14.1784 34.2167 14.5284 34.37 14.9684 34.37ZM24.035 35.09C23.5683 35.09 23.155 35.03 22.795 34.91C22.4417 34.7833 22.145 34.6 21.905 34.36C21.665 34.1133 21.4817 33.81 21.355 33.45C21.235 33.0833 21.175 32.66 21.175 32.18V28.35C21.175 28.19 21.215 28.0733 21.295 28C21.375 27.92 21.4883 27.88 21.635 27.88C21.7883 27.88 21.905 27.92 21.985 28C22.065 28.0733 22.105 28.19 22.105 28.35V32.15C22.105 32.8633 22.2683 33.3967 22.595 33.75C22.9217 34.0967 23.4017 34.27 24.035 34.27C24.6683 34.27 25.1483 34.0967 25.475 33.75C25.8017 33.3967 25.965 32.8633 25.965 32.15V28.35C25.965 28.19 26.005 28.0733 26.085 28C26.165 27.92 26.2783 27.88 26.425 27.88C26.5717 27.88 26.685 27.92 26.765 28C26.845 28.0733 26.885 28.19 26.885 28.35V32.18C26.885 32.8133 26.775 33.3467 26.555 33.78C26.3417 34.2133 26.0217 34.54 25.595 34.76C25.175 34.98 24.655 35.09 24.035 35.09ZM28.8695 36.87C28.7295 36.87 28.6195 36.83 28.5395 36.75C28.4595 36.67 28.4195 36.5567 28.4195 36.41V30.52C28.4195 30.3667 28.4595 30.2533 28.5395 30.18C28.6195 30.1 28.7295 30.06 28.8695 30.06C29.0161 30.06 29.1261 30.1 29.1995 30.18C29.2795 30.2533 29.3195 30.3667 29.3195 30.52V31.43L29.2095 31.25C29.3161 30.8833 29.5261 30.59 29.8395 30.37C30.1528 30.15 30.5295 30.04 30.9695 30.04C31.4028 30.04 31.7795 30.1433 32.0995 30.35C32.4195 30.55 32.6695 30.84 32.8495 31.22C33.0295 31.5933 33.1195 32.04 33.1195 32.56C33.1195 33.0733 33.0295 33.5233 32.8495 33.91C32.6761 34.29 32.4261 34.5833 32.0995 34.79C31.7795 34.99 31.4028 35.09 30.9695 35.09C30.5361 35.09 30.1628 34.98 29.8495 34.76C29.5361 34.54 29.3261 34.25 29.2195 33.89H29.3295V36.41C29.3295 36.5567 29.2895 36.67 29.2095 36.75C29.1295 36.83 29.0161 36.87 28.8695 36.87ZM30.7595 34.37C31.0461 34.37 31.2961 34.3 31.5095 34.16C31.7295 34.02 31.8995 33.8167 32.0195 33.55C32.1395 33.2833 32.1995 32.9533 32.1995 32.56C32.1995 31.9733 32.0695 31.5267 31.8095 31.22C31.5495 30.9133 31.1995 30.76 30.7595 30.76C30.4661 30.76 30.2095 30.83 29.9895 30.97C29.7761 31.1033 29.6095 31.3033 29.4895 31.57C29.3761 31.8367 29.3195 32.1667 29.3195 32.56C29.3195 33.1467 29.4495 33.5967 29.7095 33.91C29.9695 34.2167 30.3195 34.37 30.7595 34.37Z" fill="white"/>
<path d="M14.7494 20.2693C12.8211 20.2693 10.9362 19.7043 9.33292 18.6456C7.72964 17.5869 6.48004 16.0822 5.74213 14.3217C5.00422 12.5612 4.81115 10.624 5.18734 8.75504C5.56352 6.88609 6.49206 5.16936 7.85553 3.82193C9.219 2.4745 10.9562 1.55689 12.8474 1.18513C14.7386 0.813376 16.6988 1.00417 18.4803 1.7334C20.2618 2.46262 21.7844 3.69752 22.8557 5.28193C23.927 6.86635 24.4988 8.72911 24.4988 10.6347" stroke="white" stroke-width="2" stroke-linecap="round" stroke-linejoin="round"/>
<path d="M20.0125 11.1424V21" stroke="white" stroke-width="2" stroke-linecap="round" stroke-linejoin="round"/>
<path d="M25 16.0712H15.0251" stroke="white" stroke-width="2" stroke-linecap="round" stroke-linejoin="round"/>
</svg>
