<svg width="38" height="36" viewBox="0 0 38 36" fill="none" xmlns="http://www.w3.org/2000/svg">
<path d="M4.04 35.07C3.88667 35.07 3.77 35.03 3.69 34.95C3.61 34.8633 3.57 34.7433 3.57 34.59V28.74H1.38C1.25333 28.74 1.15333 28.7067 1.08 28.64C1.00667 28.5667 0.97 28.4667 0.97 28.34C0.97 28.2133 1.00667 28.1167 1.08 28.05C1.15333 27.9833 1.25333 27.95 1.38 27.95H6.69C6.82333 27.95 6.92333 27.9833 6.99 28.05C7.06333 28.1167 7.1 28.2133 7.1 28.34C7.1 28.4667 7.06333 28.5667 6.99 28.64C6.92333 28.7067 6.82333 28.74 6.69 28.74H4.5V34.59C4.5 34.7433 4.46 34.8633 4.38 34.95C4.30667 35.03 4.19333 35.07 4.04 35.07ZM7.50273 35.07C7.3494 35.07 7.23273 35.03 7.15273 34.95C7.07273 34.87 7.03273 34.7533 7.03273 34.6V30.52C7.03273 30.3667 7.07273 30.2533 7.15273 30.18C7.23273 30.1 7.34273 30.06 7.48273 30.06C7.62273 30.06 7.7294 30.1 7.80273 30.18C7.88273 30.2533 7.92273 30.3667 7.92273 30.52V31.29H7.82273C7.9294 30.89 8.1294 30.5867 8.42273 30.38C8.71607 30.1733 9.08607 30.0567 9.53273 30.03C9.6394 30.0233 9.72607 30.05 9.79273 30.11C9.8594 30.1633 9.89607 30.2567 9.90273 30.39C9.9094 30.5167 9.8794 30.62 9.81273 30.7C9.74607 30.7733 9.64273 30.8167 9.50273 30.83L9.32273 30.84C8.88273 30.8867 8.54273 31.03 8.30273 31.27C8.0694 31.51 7.95273 31.84 7.95273 32.26V34.6C7.95273 34.7533 7.91273 34.87 7.83273 34.95C7.7594 35.03 7.6494 35.07 7.50273 35.07ZM12.1863 35.09C11.8529 35.09 11.5496 35.0233 11.2763 34.89C11.0096 34.7567 10.7996 34.5767 10.6463 34.35C10.4996 34.1233 10.4263 33.87 10.4263 33.59C10.4263 33.23 10.5163 32.9467 10.6963 32.74C10.8763 32.5333 11.1796 32.3867 11.6063 32.3C12.0329 32.2067 12.6063 32.16 13.3263 32.16H13.7963V32.74H13.3463C12.8329 32.74 12.4263 32.7633 12.1263 32.81C11.8329 32.8567 11.6263 32.94 11.5063 33.06C11.3863 33.1733 11.3263 33.3333 11.3263 33.54C11.3263 33.8 11.4163 34.0133 11.5963 34.18C11.7829 34.3467 12.0363 34.43 12.3563 34.43C12.6096 34.43 12.8329 34.37 13.0263 34.25C13.2196 34.1233 13.3729 33.9567 13.4863 33.75C13.5996 33.5367 13.6563 33.2933 13.6563 33.02V31.87C13.6563 31.4767 13.5763 31.1933 13.4163 31.02C13.2563 30.84 12.9863 30.75 12.6063 30.75C12.3863 30.75 12.1596 30.78 11.9263 30.84C11.6929 30.9 11.4496 30.9933 11.1963 31.12C11.0963 31.1667 11.0096 31.1833 10.9363 31.17C10.8629 31.15 10.8029 31.11 10.7563 31.05C10.7163 30.9833 10.6929 30.9133 10.6863 30.84C10.6863 30.76 10.7029 30.6833 10.7363 30.61C10.7763 30.5367 10.8429 30.4833 10.9363 30.45C11.2296 30.3033 11.5196 30.2 11.8063 30.14C12.0996 30.0733 12.3729 30.04 12.6263 30.04C13.0596 30.04 13.4163 30.11 13.6963 30.25C13.9763 30.3833 14.1863 30.5933 14.3263 30.88C14.4663 31.16 14.5363 31.52 14.5363 31.96V34.6C14.5363 34.7533 14.4996 34.87 14.4263 34.95C14.3529 35.03 14.2463 35.07 14.1063 35.07C13.9729 35.07 13.8663 35.03 13.7863 34.95C13.7129 34.87 13.6763 34.7533 13.6763 34.6V33.89H13.7663C13.7129 34.1367 13.6129 34.35 13.4663 34.53C13.3196 34.71 13.1363 34.85 12.9163 34.95C12.7029 35.0433 12.4596 35.09 12.1863 35.09ZM16.4183 35.07C16.2783 35.07 16.1683 35.03 16.0883 34.95C16.0083 34.87 15.9683 34.7533 15.9683 34.6V30.52C15.9683 30.3667 16.0083 30.2533 16.0883 30.18C16.1683 30.1 16.2783 30.06 16.4183 30.06C16.5583 30.06 16.6649 30.1 16.7383 30.18C16.8183 30.2533 16.8583 30.3667 16.8583 30.52V31.34L16.7483 31.19C16.8883 30.81 17.1149 30.5233 17.4283 30.33C17.7483 30.1367 18.1116 30.04 18.5183 30.04C18.9116 30.04 19.2349 30.11 19.4883 30.25C19.7416 30.39 19.9316 30.6033 20.0583 30.89C20.1849 31.1767 20.2483 31.54 20.2483 31.98V34.6C20.2483 34.7533 20.2083 34.87 20.1283 34.95C20.0549 35.03 19.9449 35.07 19.7983 35.07C19.6516 35.07 19.5383 35.03 19.4583 34.95C19.3783 34.87 19.3383 34.7533 19.3383 34.6V32.03C19.3383 31.5967 19.2549 31.28 19.0883 31.08C18.9216 30.88 18.6549 30.78 18.2883 30.78C17.8616 30.78 17.5183 30.9133 17.2583 31.18C17.0049 31.44 16.8783 31.7933 16.8783 32.24V34.6C16.8783 34.9133 16.7249 35.07 16.4183 35.07ZM23.3709 35.09C23.0709 35.09 22.7676 35.0567 22.4609 34.99C22.1609 34.9167 21.8776 34.7933 21.6109 34.62C21.5376 34.5733 21.4843 34.5167 21.4509 34.45C21.4243 34.3767 21.4143 34.3067 21.4209 34.24C21.4343 34.1667 21.4643 34.1033 21.5109 34.05C21.5576 33.9967 21.6143 33.9667 21.6809 33.96C21.7543 33.9467 21.8309 33.9633 21.9109 34.01C22.1709 34.1567 22.4209 34.26 22.6609 34.32C22.9076 34.38 23.1509 34.41 23.3909 34.41C23.7576 34.41 24.0343 34.3433 24.2209 34.21C24.4076 34.0767 24.5009 33.9 24.5009 33.68C24.5009 33.4933 24.4376 33.35 24.3109 33.25C24.1909 33.1433 24.0009 33.0633 23.7409 33.01L22.8109 32.82C22.3976 32.7267 22.0843 32.5733 21.8709 32.36C21.6643 32.14 21.5609 31.86 21.5609 31.52C21.5609 31.22 21.6409 30.96 21.8009 30.74C21.9676 30.5133 22.1976 30.34 22.4909 30.22C22.7843 30.1 23.1209 30.04 23.5009 30.04C23.7943 30.04 24.0709 30.08 24.3309 30.16C24.5976 30.2333 24.8376 30.3467 25.0509 30.5C25.1309 30.5467 25.1809 30.6067 25.2009 30.68C25.2276 30.7467 25.2309 30.8167 25.2109 30.89C25.1976 30.9567 25.1676 31.0133 25.1209 31.06C25.0743 31.1067 25.0143 31.1367 24.9409 31.15C24.8676 31.1567 24.7876 31.1367 24.7009 31.09C24.5076 30.9567 24.3076 30.8633 24.1009 30.81C23.9009 30.75 23.7009 30.72 23.5009 30.72C23.1409 30.72 22.8676 30.79 22.6809 30.93C22.5009 31.07 22.4109 31.2533 22.4109 31.48C22.4109 31.6533 22.4643 31.7967 22.5709 31.91C22.6843 32.0233 22.8609 32.1067 23.1009 32.16L24.0309 32.35C24.4643 32.4433 24.7909 32.5933 25.0109 32.8C25.2309 33 25.3409 33.2733 25.3409 33.62C25.3409 34.0733 25.1609 34.4333 24.8009 34.7C24.4476 34.96 23.9709 35.09 23.3709 35.09ZM27.2649 35.07C27.1183 35.07 27.0049 35.03 26.9249 34.95C26.8449 34.87 26.8049 34.7533 26.8049 34.6V30.83H26.2049C26.0849 30.83 25.9916 30.8 25.9249 30.74C25.8583 30.6733 25.8249 30.5867 25.8249 30.48C25.8249 30.3667 25.8583 30.28 25.9249 30.22C25.9916 30.16 26.0849 30.13 26.2049 30.13H27.0549L26.8049 30.37V30C26.8049 29.3533 26.9616 28.8633 27.2749 28.53C27.5949 28.19 28.0616 27.9933 28.6749 27.94L28.9849 27.92C29.0849 27.9067 29.1649 27.9233 29.2249 27.97C29.2849 28.01 29.3249 28.0633 29.3449 28.13C29.3649 28.1967 29.3649 28.2667 29.3449 28.34C29.3316 28.4067 29.3016 28.4667 29.2549 28.52C29.2083 28.5733 29.1483 28.6033 29.0749 28.61L28.8549 28.62C28.4549 28.6533 28.1649 28.7733 27.9849 28.98C27.8049 29.18 27.7149 29.48 27.7149 29.88V30.28L27.5849 30.13H28.7349C28.8616 30.13 28.9583 30.16 29.0249 30.22C29.0916 30.28 29.1249 30.3667 29.1249 30.48C29.1249 30.5867 29.0916 30.6733 29.0249 30.74C28.9583 30.8 28.8616 30.83 28.7349 30.83H27.7149V34.6C27.7149 34.9133 27.5649 35.07 27.2649 35.07ZM32.0366 35.09C31.51 35.09 31.0566 34.99 30.6766 34.79C30.3033 34.5833 30.0133 34.2933 29.8066 33.92C29.6 33.54 29.4966 33.0933 29.4966 32.58C29.4966 32.0733 29.5966 31.63 29.7966 31.25C30.0033 30.87 30.2833 30.5733 30.6366 30.36C30.9966 30.1467 31.4066 30.04 31.8666 30.04C32.1933 30.04 32.4866 30.0967 32.7466 30.21C33.0133 30.3167 33.24 30.4733 33.4266 30.68C33.6133 30.8867 33.7533 31.14 33.8466 31.44C33.9466 31.7333 33.9966 32.0667 33.9966 32.44C33.9966 32.5467 33.9633 32.63 33.8966 32.69C33.8366 32.7433 33.7466 32.77 33.6266 32.77H30.2066V32.19H33.3966L33.2266 32.33C33.2266 31.9833 33.1733 31.69 33.0666 31.45C32.9666 31.2033 32.8166 31.0167 32.6166 30.89C32.4233 30.7633 32.18 30.7 31.8866 30.7C31.5666 30.7 31.2933 30.7767 31.0666 30.93C30.84 31.0767 30.6666 31.2867 30.5466 31.56C30.4266 31.8267 30.3666 32.1367 30.3666 32.49V32.55C30.3666 33.15 30.51 33.6033 30.7966 33.91C31.0833 34.2167 31.4966 34.37 32.0366 34.37C32.25 34.37 32.4666 34.3433 32.6866 34.29C32.9133 34.2367 33.13 34.14 33.3366 34C33.4366 33.94 33.5266 33.9133 33.6066 33.92C33.6933 33.92 33.7633 33.9467 33.8166 34C33.87 34.0467 33.9033 34.1067 33.9166 34.18C33.93 34.2467 33.92 34.32 33.8866 34.4C33.8533 34.48 33.79 34.55 33.6966 34.61C33.4766 34.7633 33.2133 34.8833 32.9066 34.97C32.6066 35.05 32.3166 35.09 32.0366 35.09ZM35.5984 35.07C35.4451 35.07 35.3284 35.03 35.2484 34.95C35.1684 34.87 35.1284 34.7533 35.1284 34.6V30.52C35.1284 30.3667 35.1684 30.2533 35.2484 30.18C35.3284 30.1 35.4384 30.06 35.5784 30.06C35.7184 30.06 35.8251 30.1 35.8984 30.18C35.9784 30.2533 36.0184 30.3667 36.0184 30.52V31.29H35.9184C36.0251 30.89 36.2251 30.5867 36.5184 30.38C36.8118 30.1733 37.1818 30.0567 37.6284 30.03C37.7351 30.0233 37.8218 30.05 37.8884 30.11C37.9551 30.1633 37.9918 30.2567 37.9984 30.39C38.0051 30.5167 37.9751 30.62 37.9084 30.7C37.8418 30.7733 37.7384 30.8167 37.5984 30.83L37.4184 30.84C36.9784 30.8867 36.6384 31.03 36.3984 31.27C36.1651 31.51 36.0484 31.84 36.0484 32.26V34.6C36.0484 34.7533 36.0084 34.87 35.9284 34.95C35.8551 35.03 35.7451 35.07 35.5984 35.07Z" fill="white"/>
<path d="M19.7494 20.2693C17.8211 20.2693 15.9362 19.7043 14.3329 18.6456C12.7296 17.5869 11.48 16.0822 10.7421 14.3217C10.0042 12.5612 9.81115 10.624 10.1873 8.75504C10.5635 6.88609 11.4921 5.16936 12.8555 3.82193C14.219 2.4745 15.9562 1.55689 17.8474 1.18513C19.7386 0.813376 21.6988 1.00417 23.4803 1.7334C25.2618 2.46262 26.7844 3.69752 27.8557 5.28193C28.927 6.86635 29.4988 8.72911 29.4988 10.6347" stroke="white" stroke-width="2" stroke-linecap="round" stroke-linejoin="round"/>
<path d="M25.0125 11.1424V21" stroke="white" stroke-width="2" stroke-linecap="round" stroke-linejoin="round"/>
<path d="M30 16.0712H20.0251" stroke="white" stroke-width="2" stroke-linecap="round" stroke-linejoin="round"/>
</svg>
